<svg width="32" height="32" viewBox="0 0 32 32" fill="none" xmlns="http://www.w3.org/2000/svg">
<rect width="32" height="32" rx="8" fill="#D4D0CD"/>
<path d="M16.0955 20.2598C16.0955 18.4049 16.0955 14.452 16.0955 12.1074C16.0955 7.87421 12.8424 7.38452 9.4138 7.38452C6.3001 7.38452 2.80141 7.87421 0.49231 8.39933L2.90611 11.7579C4.9003 10.114 7.48969 8.64418 10.1483 8.60955C13.8919 8.53947 13.4022 13.1923 9.93812 14.067C8.64383 14.3819 7.24484 14.1016 5.87968 14.067C2.69671 13.9969 0.49231 16.0265 0.49231 19.2796C0.49231 22.7082 2.94155 24.5276 5.7049 24.5276C8.6092 24.5276 11.793 22.4988 12.7369 18.3703V19.9094C12.7369 21.6241 12.7724 23.0231 13.3667 24.5276H16.7253C16.2356 23.1979 16.0955 22.0083 16.0955 20.2598ZM6.99919 22.6736C3.11633 22.7783 2.34636 16.306 7.55895 15.5715C9.37837 15.3266 11.8276 15.2566 12.7369 13.4726C12.422 16.6209 11.1277 22.5681 6.99919 22.6736Z" fill="#0E0E12"/>
<path d="M22.4974 21.6942C21.133 20.8195 22.3226 19.5599 24.5616 19.0001C25.7158 18.6852 27.0455 18.5104 28.2005 18.1254C31.9432 16.8658 32.4337 12.8073 30.0545 10.0786C28.5846 8.39933 26.2409 7.38452 23.7917 7.38452C19.0688 7.38452 15.2205 11.2336 15.2205 15.9565C15.2205 20.6794 19.0688 24.5276 23.7917 24.5276C27.1502 24.5276 30.0891 22.6035 31.4889 19.7693L30.8237 18.86C29.4947 21.939 25.4709 23.5829 22.4974 21.6942ZM20.6079 20.2944C20.1182 19.8047 19.6986 19.2449 19.3136 18.5805C17.2493 15.0818 17.5643 11.058 20.0481 9.62355C20.9582 9.09923 21.9731 8.99372 22.9524 9.13387C25.1214 9.51885 27.3604 11.2336 27.9902 13.3671C28.4099 14.8015 28.0249 16.2714 26.381 16.9705C24.4215 17.7751 21.6581 18.1601 20.6079 20.2944Z" fill="#0E0E12"/>
</svg>
