<svg width="64" height="64" viewBox="0 0 64 64" fill="none" xmlns="http://www.w3.org/2000/svg">
<rect width="64" height="64" rx="16" fill="#B6AEA9"/>
<path d="M32.1909 40.5198C32.1909 36.8101 32.1909 28.9042 32.1909 24.2151C32.1909 15.7487 25.6848 14.7693 18.8276 14.7693C12.6002 14.7693 5.60282 15.7487 0.984619 16.7989L5.81223 23.516C9.8006 20.2283 14.9794 17.2886 20.2967 17.2193C27.7837 17.0792 26.8044 26.3849 19.8762 28.1342C17.2877 28.764 14.4897 28.2035 11.7594 28.1342C5.39342 27.9941 0.984619 32.0533 0.984619 38.5594C0.984619 45.4166 5.8831 49.0555 11.4098 49.0555C17.2184 49.0555 23.586 44.9978 25.4738 36.7408V39.8191C25.4738 43.2485 25.5447 46.0465 26.7335 49.0555H33.4506C32.4712 46.396 32.1909 44.0168 32.1909 40.5198ZM13.9984 45.3474C6.23265 45.5568 4.69271 32.6123 15.1179 31.1432C18.7567 30.6535 23.6552 30.5134 25.4738 26.9454C24.844 33.2421 22.2554 45.1363 13.9984 45.3474Z" fill="#0E0E12"/>
<path d="M44.9947 43.3886C42.266 41.6393 44.6451 39.12 49.1232 38.0004C51.4315 37.3706 54.0909 37.0211 56.4009 36.2511C63.8863 33.7318 64.8673 25.6149 60.1089 20.1575C57.1692 16.7989 52.4817 14.7693 47.5833 14.7693C38.1374 14.7693 30.441 22.4674 30.441 31.9132C30.441 41.359 38.1374 49.0555 47.5833 49.0555C54.3004 49.0555 60.1782 45.2072 62.9778 39.5388L61.6473 37.7202C58.9894 43.8783 50.9418 47.166 44.9947 43.3886ZM41.2157 40.589C40.2363 39.6096 39.3971 38.4901 38.6271 37.1612C34.4986 30.1638 35.1284 22.1162 40.0962 19.2473C41.9164 18.1987 43.946 17.9877 45.9048 18.268C50.2427 19.0379 54.7208 22.4674 55.9804 26.7344C56.8197 29.6033 56.0497 32.543 52.762 33.9412C48.8429 35.5504 43.3162 36.3204 41.2157 40.589Z" fill="#0E0E12"/>
</svg>
