<svg width="350" height="59" viewBox="0 0 350 59" fill="none" xmlns="http://www.w3.org/2000/svg">
<path d="M53.1698 43.8698C53.1698 37.5546 53.1698 24.0814 53.1698 16.0942C53.1698 1.66746 42.0826 0 30.4012 0C19.7884 0 7.86745 1.66746 0 3.45928L8.22674 14.9012C15.0209 9.29999 23.8419 4.29301 32.9023 4.17325C45.6616 3.93372 43.9896 19.7884 32.1884 22.7686C27.7756 23.8419 23.0081 22.8884 18.3605 22.7686C7.51277 22.5337 0 29.4477 0 40.5349C0 52.2163 8.3465 58.4163 17.7616 58.4163C27.6604 58.4163 38.5081 51.5023 41.7279 37.4349V42.6814C41.7279 48.5221 41.843 53.2895 43.8698 58.4163H55.3163C53.6488 53.8837 53.1698 49.8349 53.1698 43.8698ZM22.1744 52.0965C8.9407 52.4558 6.31976 30.4012 24.0814 27.8954C30.2814 27.0616 38.6279 26.8221 41.7279 20.7419C40.6546 31.4744 36.2419 51.7418 22.1744 52.0965Z" fill="#0E0E12"/>
<path d="M86.9055 48.7616C82.2578 45.7814 86.3113 41.4884 93.9392 39.5814C97.8729 38.5081 102.405 37.9093 106.339 36.6011C119.094 32.3081 120.766 18.4802 112.659 9.18023C107.652 3.45928 99.6647 0 91.3182 0C75.2241 0 62.1101 13.114 62.1101 29.2081C62.1101 45.3023 75.2241 58.4163 91.3182 58.4163C102.765 58.4163 112.779 51.8616 117.546 42.2023L115.28 39.1023C110.752 49.5953 97.0392 55.1965 86.9055 48.7616ZM80.4706 43.9895C78.7985 42.3221 77.3706 40.4151 76.0578 38.1488C69.0241 26.2279 70.0973 12.5197 78.5636 7.62793C81.6636 5.84071 85.1183 5.48603 88.4578 5.96047C95.8462 7.27325 103.479 13.114 105.625 20.3872C107.053 25.2744 105.745 30.2814 100.139 32.6674C93.4648 35.4081 84.045 36.7209 80.4706 43.9895Z" fill="#0E0E12"/>
<path d="M124.697 0C126.484 4.41277 126.844 8.46626 126.844 14.5465V43.8698C126.844 49.8349 126.484 53.8837 124.697 58.4163C129.944 58.4163 135.19 58.4163 140.432 58.4163C138.765 53.8837 138.29 49.8349 138.29 43.8698V15.3802C138.29 15.1407 138.29 14.7814 138.29 14.4267C145.798 9.29999 154.979 7.86745 164.873 11.4465V0C155.573 0 145.798 5.36626 138.29 10.014C138.051 6.55928 137.572 3.33952 136.264 0H124.697Z" fill="#0E0E12"/>
<path d="M224.837 43.8698C224.837 37.5546 224.837 24.0814 224.837 16.0942C224.837 1.66746 213.75 0 202.068 0C191.456 0 179.535 1.66746 171.667 3.45928L179.894 14.9012C186.688 9.29999 195.509 4.29301 204.57 4.17325C217.329 3.93372 215.657 19.7884 203.856 22.7686C199.443 23.8419 194.675 22.8884 190.028 22.7686C179.18 22.5337 171.667 29.4477 171.667 40.5349C171.667 52.2163 180.014 58.4163 189.429 58.4163C199.328 58.4163 210.175 51.5023 213.395 37.4349V42.6814C213.395 48.5221 213.51 53.2895 215.537 58.4163H226.984C225.316 53.8837 224.837 49.8349 224.837 43.8698ZM193.842 52.0965C180.608 52.4558 177.987 30.4012 195.749 27.8954C201.949 27.0616 210.295 26.8221 213.395 20.7419C212.322 31.4744 207.909 51.7418 193.842 52.0965Z" fill="#0E0E12"/>
<path d="M239.502 36.0853L238.194 37.4304V39.5492H236.664V31.2949H238.194V35.5326L242.284 31.2949H243.997L240.534 34.9798L244.219 39.5492H242.413L239.502 36.0853Z" fill="#0E0E12"/>
<path d="M249.757 39.6598C248.918 39.6598 248.163 39.4848 247.49 39.1255C246.813 38.757 246.279 38.2503 245.887 37.5962C245.505 36.9467 245.316 36.2235 245.316 35.4221C245.316 34.6252 245.505 33.902 245.887 33.2479C246.279 32.5984 246.813 32.0964 247.49 31.7371C248.163 31.3686 248.918 31.1843 249.757 31.1843C250.604 31.1843 251.364 31.3686 252.041 31.7371C252.714 32.0964 253.243 32.5984 253.626 33.2479C254.017 33.8882 254.215 34.6114 254.215 35.4221C254.215 36.2328 254.017 36.9652 253.626 37.6146C253.243 38.2549 252.714 38.757 252.041 39.1255C251.364 39.4848 250.604 39.6598 249.757 39.6598ZM249.757 38.3148C250.309 38.3148 250.807 38.195 251.249 37.9463C251.691 37.7022 252.032 37.3567 252.281 36.9145C252.539 36.4723 252.668 35.9748 252.668 35.4221C252.668 34.8693 252.539 34.3718 252.281 33.9296C252.032 33.4874 251.691 33.1466 251.249 32.8978C250.807 32.6537 250.309 32.5293 249.757 32.5293C249.213 32.5293 248.725 32.6537 248.283 32.8978C247.84 33.1466 247.49 33.4874 247.232 33.9296C246.984 34.3718 246.864 34.8693 246.864 35.4221C246.864 35.9748 246.984 36.4723 247.232 36.9145C247.49 37.3567 247.84 37.7022 248.283 37.9463C248.725 38.195 249.213 38.3148 249.757 38.3148Z" fill="#0E0E12"/>
<path d="M261.878 39.5492L260.201 37.1356C260.127 37.1356 260.017 37.1356 259.87 37.1356H258.009V39.5492H256.479V31.2949H259.87C260.593 31.2949 261.219 31.4146 261.749 31.6449C262.274 31.8799 262.679 32.2161 262.965 32.6583C263.246 33.1005 263.389 33.6256 263.389 34.2244C263.389 34.8509 263.232 35.3944 262.928 35.8458C262.633 36.288 262.2 36.6197 261.638 36.8408L263.536 39.5492H261.878ZM261.841 34.2244C261.841 33.6993 261.666 33.294 261.325 33.0084C260.98 32.7274 260.478 32.5846 259.814 32.5846H258.009V35.8827H259.814C260.478 35.8827 260.98 35.7445 261.325 35.4589C261.666 35.1641 261.841 34.7541 261.841 34.2244Z" fill="#0E0E12"/>
<path d="M271.935 38.2595V39.5492H265.745V31.2949H271.769V32.5846H267.274V34.7219H271.272V35.9932H267.274V38.2595H271.935Z" fill="#0E0E12"/>
<path d="M279.652 37.633H275.525L274.714 39.5492H273.13L276.833 31.2949H278.344L282.084 39.5492H280.481L279.652 37.633ZM279.136 36.4354L277.589 32.8241L276.041 36.4354H279.136Z" fill="#0E0E12"/>
<path d="M291.101 31.2949V39.5492H289.848L285.297 33.9665V39.5492H283.768V31.2949H285.039L289.59 36.8776V31.2949H291.101Z" fill="#0E0E12"/>
<path d="M303.725 35.2562C304.176 35.4036 304.536 35.657 304.794 36.0116C305.061 36.3571 305.199 36.7855 305.199 37.3014C305.199 38.0292 304.923 38.5865 304.37 38.9781C303.826 39.3604 303.029 39.5492 301.975 39.5492H297.866V31.2949H301.735C302.702 31.2949 303.453 31.4883 303.983 31.866C304.508 32.2484 304.775 32.7689 304.775 33.4322C304.775 33.8513 304.674 34.2198 304.48 34.5377C304.296 34.8463 304.043 35.0858 303.725 35.2562ZM299.395 32.4925V34.7772H301.569C302.108 34.7772 302.518 34.6804 302.804 34.4824C303.085 34.2889 303.228 34.0033 303.228 33.6348C303.228 33.2663 303.085 32.9853 302.804 32.7873C302.518 32.5938 302.108 32.4925 301.569 32.4925H299.395ZM301.882 38.3516C303.062 38.3516 303.651 37.9555 303.651 37.154C303.651 36.3571 303.062 35.9564 301.882 35.9564H299.395V38.3516H301.882Z" fill="#0E0E12"/>
<path d="M313.675 38.2595V39.5492H307.485V31.2949H313.51V32.5846H309.014V34.7219H313.012V35.9932H309.014V38.2595H313.675Z" fill="#0E0E12"/>
<path d="M321.392 37.633H317.265L316.454 39.5492H314.87L318.573 31.2949H320.084L323.824 39.5492H322.221L321.392 37.633ZM320.876 36.4354L319.329 32.8241L317.781 36.4354H320.876Z" fill="#0E0E12"/>
<path d="M329.064 39.6598C327.922 39.6598 327.028 39.342 326.392 38.7017C325.752 38.066 325.434 37.1494 325.434 35.9564V31.2949H326.982V35.9011C326.982 37.5133 327.673 38.3148 329.064 38.3148C330.464 38.3148 331.164 37.5133 331.164 35.9011V31.2949H332.675V35.9564C332.675 37.1494 332.353 38.066 331.717 38.7017C331.091 39.342 330.206 39.6598 329.064 39.6598Z" fill="#0E0E12"/>
<path d="M337.133 32.5846H334.406V31.2949H341.408V32.5846H338.663V39.5492H337.133V32.5846Z" fill="#0E0E12"/>
<path d="M346.757 36.6381V39.5492H345.228V36.6565L341.985 31.2949H343.625L346.039 35.3115L348.489 31.2949H350L346.757 36.6381Z" fill="#0E0E12"/>
<path d="M271.161 55.5789C270.52 55.5789 269.908 55.4914 269.318 55.3209C268.728 55.1367 268.254 54.8972 267.899 54.6024L268.434 53.4048C268.774 53.6765 269.194 53.8976 269.687 54.0681C270.175 54.2293 270.668 54.3076 271.161 54.3076C271.773 54.3076 272.229 54.2108 272.524 54.0128C272.828 53.8193 272.985 53.5614 272.985 53.2389C272.985 53.0086 272.897 52.8152 272.727 52.6678C272.565 52.5111 272.349 52.3868 272.082 52.2993C271.824 52.2163 271.474 52.115 271.032 52.0045C270.405 51.8571 269.894 51.7097 269.502 51.5623C269.106 51.4056 268.77 51.1707 268.489 50.8621C268.217 50.5443 268.084 50.1067 268.084 49.5539C268.084 49.1025 268.203 48.688 268.452 48.3195C268.696 47.9418 269.069 47.647 269.576 47.4351C270.078 47.214 270.686 47.1034 271.4 47.1034C271.902 47.1034 272.4 47.1679 272.892 47.2877C273.381 47.412 273.804 47.5917 274.164 47.822L273.666 49.0196C273.307 48.8123 272.934 48.6511 272.542 48.5406C272.146 48.43 271.769 48.3747 271.4 48.3747C270.797 48.3747 270.35 48.4807 270.055 48.688C269.76 48.886 269.613 49.1578 269.613 49.4987C269.613 49.7336 269.691 49.9224 269.852 50.0698C270.023 50.2172 270.239 50.337 270.497 50.4199C270.755 50.5074 271.11 50.6042 271.566 50.7147C272.178 50.8621 272.681 51.0187 273.077 51.1753C273.468 51.3227 273.8 51.5577 274.072 51.8755C274.353 52.1841 274.495 52.6033 274.495 53.1284C274.495 53.5844 274.371 54.0036 274.127 54.3813C273.878 54.7498 273.505 55.0446 273.003 55.2657C272.496 55.473 271.884 55.5789 271.161 55.5789Z" fill="#0E0E12"/>
<path d="M278.339 48.5037H275.612V47.214H282.614V48.5037H279.868V55.4683H278.339V48.5037Z" fill="#0E0E12"/>
<path d="M287.963 55.5789C286.82 55.5789 285.927 55.2611 285.291 54.6208C284.651 53.9851 284.333 53.0685 284.333 51.8755V47.214H285.881V51.8202C285.881 53.4324 286.572 54.2339 287.963 54.2339C289.363 54.2339 290.063 53.4324 290.063 51.8202V47.214H291.574V51.8755C291.574 53.0685 291.252 53.9851 290.616 54.6208C289.989 55.2611 289.105 55.5789 287.963 55.5789Z" fill="#0E0E12"/>
<path d="M294.355 47.214H297.967C298.851 47.214 299.63 47.389 300.307 47.7299C300.993 48.0753 301.523 48.559 301.891 49.1854C302.269 49.8027 302.462 50.5212 302.462 51.3411C302.462 52.1657 302.269 52.8888 301.891 53.5153C301.523 54.1325 300.993 54.6116 300.307 54.9524C299.63 55.2979 298.851 55.4683 297.967 55.4683H294.355V47.214ZM297.893 54.1786C298.492 54.1786 299.022 54.0634 299.478 53.8285C299.943 53.5982 300.298 53.2666 300.546 52.8336C300.804 52.4052 300.933 51.9077 300.933 51.3411C300.933 50.7792 300.804 50.2817 300.546 49.8487C300.298 49.4203 299.943 49.0887 299.478 48.8538C299.022 48.6235 298.492 48.5037 297.893 48.5037H295.885V54.1786H297.893Z" fill="#0E0E12"/>
<path d="M304.74 47.214H306.27V55.4683H304.74V47.214Z" fill="#0E0E12"/>
<path d="M313 55.5789C312.162 55.5789 311.406 55.4039 310.734 55.0446C310.056 54.6761 309.522 54.1694 309.131 53.5153C308.748 52.8658 308.559 52.1426 308.559 51.3412C308.559 50.5443 308.748 49.8211 309.131 49.167C309.522 48.5175 310.056 48.0155 310.734 47.6562C311.406 47.2877 312.162 47.1034 313 47.1034C313.847 47.1034 314.607 47.2877 315.285 47.6562C315.957 48.0155 316.487 48.5175 316.869 49.167C317.261 49.8073 317.459 50.5305 317.459 51.3412C317.459 52.1519 317.261 52.8842 316.869 53.5337C316.487 54.174 315.957 54.6761 315.285 55.0446C314.607 55.4039 313.847 55.5789 313 55.5789ZM313 54.2339C313.553 54.2339 314.05 54.1141 314.492 53.8654C314.934 53.6212 315.275 53.2758 315.524 52.8336C315.782 52.3914 315.911 51.8939 315.911 51.3412C315.911 50.7884 315.782 50.2909 315.524 49.8487C315.275 49.4065 314.934 49.0657 314.492 48.8169C314.05 48.5728 313.553 48.4484 313 48.4484C312.456 48.4484 311.968 48.5728 311.526 48.8169C311.084 49.0657 310.734 49.4065 310.476 49.8487C310.227 50.2909 310.107 50.7884 310.107 51.3412C310.107 51.8939 310.227 52.3914 310.476 52.8336C310.734 53.2758 311.084 53.6212 311.526 53.8654C311.968 54.1141 312.456 54.2339 313 54.2339Z" fill="#0E0E12"/>
</svg>
