<svg width="204" height="204" viewBox="0 0 204 204" fill="none" xmlns="http://www.w3.org/2000/svg">
<path d="M102.622 129.557C102.622 117.664 102.622 92.3171 102.622 77.2837C102.622 50.1399 81.435 47 59.1048 47C38.8255 47 16.0389 50.1399 1 53.5071L16.7209 75.0424C29.7088 64.502 46.5732 55.077 63.8887 54.855C88.27 54.4057 85.0807 84.2401 62.5196 89.8486C54.0901 91.8678 44.9786 90.0706 36.0874 89.8486C15.357 89.3993 1 102.413 1 123.272C1 145.257 16.9517 156.923 34.9491 156.923C53.8645 156.923 74.6001 143.914 80.7479 117.442V127.311C80.7479 138.306 80.9787 147.276 84.8499 156.923H106.724C103.534 148.397 102.622 140.769 102.622 129.557ZM43.3787 145.035C18.09 145.706 13.0752 104.205 47.0243 99.4956C58.874 97.9256 74.8256 97.4763 80.7479 86.0373C78.6969 106.225 70.2673 144.358 43.3787 145.035Z" fill="#0E0E12"/>
<path d="M144.317 138.755C135.431 133.146 143.178 125.069 157.761 121.48C165.278 119.461 173.938 118.34 181.46 115.872C205.836 107.795 209.031 81.7715 193.535 64.2747C183.962 53.5071 168.698 47 152.746 47C121.986 47 96.9232 71.6804 96.9232 101.964C96.9232 132.248 121.986 156.923 152.746 156.923C174.62 156.923 193.761 144.585 202.878 126.412L198.545 120.582C189.89 140.325 163.683 150.865 144.317 138.755ZM132.011 129.779C128.821 126.639 126.088 123.05 123.581 118.79C110.137 96.3557 112.188 70.5546 128.365 61.3569C134.292 57.9949 140.902 57.3184 147.28 58.217C161.407 60.6855 175.989 71.6804 180.091 85.3608C182.824 94.5585 180.317 103.983 169.611 108.466C156.848 113.625 138.851 116.094 132.011 129.779Z" fill="#0E0E12"/>
</svg>
